<?xml version="1.0" encoding="UTF-8"?><svg id="a" xmlns="http://www.w3.org/2000/svg" width="8.503949" height="8.705559" viewBox="0 0 8.503949 8.705559"><g id="b"><path d="M1.468835,6.994808l-.010071.005737c-.054321.031738-.087952.069275-.074402.083008.013855.013672.069702-.000916.123962-.032959l.005188-.002808.0047-.002869c.054443-.031921.08783-.069275.07428-.083008-.013489-.013794-.06958.001099-.123657.032898Z" fill="#efb276" stroke-width="0"/><path d="M5.034265,5.146298h-.000061c-.06012.000366-.114075.001709-.149292.005554-.033569.003662-.092163.02478-.162415.052307-.038574.019226-.092041.040833-.136719.061584-.052856.067261-.105286.134216-.153137.190063-.074646.08728-.139832.188538-.19696.189697l.006592.010559c-.585571.199646-1.034241.281006-1.141846.347229l-.008301-.012756c-.502197.281311-.721008.430969-.778931.495789-.041138-.006836-.125732.018677-.213867.072266-.073914.044983-.11084.087158-.120911.117676-.033752-.002747-.084595.013245-.131592.05011-.042603.033325-.057861.065369-.055542.088501-.025635-.012085-.077759-.003662-.130859.02771-.059937.035645-.094177.082458-.075439.103943.019043.021484.084167.009949.144287-.025574.047058-.027954.069519-.059509.071838-.083679.030762.011841.093933-.008545.147705-.05072.038391-.029907.053711-.058533.056274-.081665.045105.000549.119873-.022095.200623-.071228.065125-.03949.100952-.07666.118408-.107056.127686-.012573.615112-.24353.789978-.441223.122986.066467.434509.030823.62854-.015625.24176-.057983.355774-.106812.582947-.211182l-.002197-.010071c.152405-.064819.473816-.402405.710876-.702209Z" fill="#efb276" stroke-width="0"/><path d="M1.518213,1.660641l-.0047-.002869-.005188-.002808c-.05426-.032043-.110107-.046631-.123962-.032959-.01355.013733.020081.05127.074402.083008l.010071.005737c.054077.031799.110168.046692.123657.032898.01355-.013733-.019836-.051086-.07428-.083008Z" fill="#efb276" stroke-width="0"/><path d="M1.660425,1.862972c.053101.031372.105225.039795.130859.02771-.002319.023132.012939.055176.055542.088501.046997.036865.097717.052917.131531.05011.01001.030518.047058.072693.120972.117676.088135.053589.172729.079102.213867.072266.057922.064819.276733.214478.778931.495789l.008301-.012756c.107605.066223.556335.147583,1.141846.347229l-.006592.010559c.057129.00116.122314.102417.19696.189636.047852.055847.100281.122803.153137.190063.044678.020752.098145.042358.136719.061584.070251.027588.128845.048645.162415.052368.035217.003845.089172.005188.149292.005554h.000061c-.237061-.299805-.558472-.63739-.710876-.702271l.002197-.01001c-.227173-.10437-.341187-.153198-.582947-.211182-.194031-.046448-.505554-.082092-.62854-.015625-.174866-.197693-.662292-.42865-.789978-.441223-.017456-.030396-.053284-.067566-.118408-.107056-.080811-.049133-.155518-.071777-.200623-.071228-.002563-.023132-.017883-.051758-.056274-.081665-.053772-.042175-.116943-.062561-.147705-.05072-.002319-.02417-.02478-.055725-.071838-.083679-.06012-.035522-.125244-.047058-.144287-.025635-.018738.021545.015503.068359.075439.104004Z" fill="#efb276" stroke-width="0"/></g><g id="c"><path d="M6.025781,8.624386l-.001282-.008484c-.006409-.046082-.023621-.085266-.037964-.087036-.014038-.001465-.020508.035095-.013855.08136l.000549.00415.000671.004333c.006531.046143.02356.085266.038025.086792.014221.001709.020386-.035034.013855-.081116Z" fill="#efb276" stroke-width="0"/><path d="M6.010461,8.27026c-.003235-.039612-.017395-.070984-.033447-.090515.013428-.018494.018494-.061829.005188-.127747-.011719-.058716-.031738-.102905-.051697-.132629.007812-.121765-.128479-.760986-.210083-.846375l-.054565.011597c.112244-.10022-.055786-.373169-.086548-.572327-.016968-.137817-.016113-.23999-.109375-.363892.018921-.016479.03772-.040039.055176-.081482.036072-.15332.054443-.475342.044006-.72937-.000183,0-.000305-.000122-.000488-.000122-.072449-.012634-.174438-.04425-.187378-.049805-.022583-.009705-.03241-.025818-.051208-.037598.001892.021057.005798.039978.002441.065002-.037781.280029-.115112.747314-.024902.808044.035339.35968.275146.992188.328613.995972.008362-.002808.006531-.011902.013428-.015564.130188.474304.206299.708618.246094.795715-.016113.014099-.022034.061462-.007812.132446.013.064392.035889.11261.057556.139709-.013.011292-.022217.035034-.019043.073486.003845.04541.021301.082947.040588.098999-.017761.003723-.033508.034607-.035767.080688-.002441.051697.046692.100647.06781.101624.021118.001038.032593-.040283.025574-.091431-.006104-.044312-.026306-.070557-.044495-.08252.020508.000854.034424-.032288.030334-.081909Z" fill="#efb276" stroke-width="0"/><path d="M6.011926.000057c-.014465.001526-.031494.040649-.038025.086792l-.000671.004333-.000549.00415c-.006653.046265-.000183.082825.013855.08136.014343-.00177.031555-.040955.037964-.087036l.001282-.008484c.006531-.046082.000366-.082825-.013855-.081116Z" fill="#efb276" stroke-width="0"/><path d="M5.330041,3.455563c.018799-.01178.028625-.027893.051208-.037598.012878-.005615.114868-.037231.187256-.049805.000183-.000061.000427-.000061.00061-.000122.010437-.254028-.007935-.576111-.044006-.729431-.017456-.041443-.036255-.064941-.055176-.081421.093262-.123901.092407-.226074.109375-.363953.030762-.199097.198792-.472046.086548-.572266l.054565.011597c.081604-.085388.217896-.724609.210083-.846375.019958-.029724.039978-.073914.051697-.132629.013306-.065918.00824-.109314-.005188-.127808.016052-.01947.030212-.050842.033447-.090454.004089-.049622-.009827-.082764-.030334-.081909.018188-.011963.038391-.038208.044495-.08252.007019-.051147-.004456-.092468-.025574-.091431-.021118.000977-.070251.049927-.06781.101624.002258.046082.018005.076965.035767.080688-.019287.016052-.036743.053589-.040588.098999-.003174.038452.006042.062195.019043.073486-.021729.0271-.044556.075317-.057556.139709-.014221.070984-.008301.118347.007812.132446-.039795.087097-.115906.321411-.246094.795715-.006897-.003662-.005066-.012756-.013428-.015564-.053467.003784-.293274.636108-.328613.995911-.09021.06073-.012878.528076.024902.808105.003357.025024-.000549.043945-.002441.065002Z" fill="#efb276" stroke-width="0"/></g><g id="d"><path d="M8.474878,6.997372l-.004272-.005371c-.024353-.029541-.05304-.049622-.063416-.044556-.010315.005066.00116.03363.025513.063232l.002136.002625.002502.002625c.024048.029541.052551.049622.062805.044373.010315-.005188-.001099-.033569-.025269-.062927Z" fill="#efb276" stroke-width="0"/><path d="M8.392602,6.864925c-.026855-.032837-.061218-.05304-.075989-.044495-.014954.008301-.005249.042297.021851.075256.026794.032776.061035.052856.075928.044373.014954-.008545.004822-.042358-.02179-.075134Z" fill="#efb276" stroke-width="0"/><path d="M8.308557,6.740536c-.025452-.030579-.056946-.046265-.076599-.045044.009033-.014893-.011475-.053528-.057068-.097168-.039673-.038025-.078369-.059875-.105225-.066711-.038086-.065308-.16272-.210999-.426575-.477173.006165-.087769-.224609-.130554-.340698-.239014-.076233-.077148-.117798-.143433-.241638-.18396.024292-.097168-.281189-.344055-.510742-.487122-.006531.007141-.008667.016357-.015625.023376-.046021.046387-.122925.079712-.209167.1073.111755.095581.329956.215942.477722.301208.059143.03418.099365.083191.134888.093811l.001099.003296c.211487.228516.593689.470764.660217.450989.109253.181274.361877.402649.454102.444031.010925.018188.027161.039368.050476.061707.048401.046448.100891.075928.123169.071899-.008972.011719-.008972.033569.014709.062256.027954.033447.065918.055969.084229.049561.01825-.006409.010254-.039429-.017273-.073242Z" fill="#efb276" stroke-width="0"/><path d="M8.437341,1.689632l-.002502.002625-.002136.002625c-.024353.029602-.035828.058167-.025513.063232.010376.005066.039062-.015015.063416-.044556l.004272-.005371c.02417-.029358.035583-.057739.025269-.062927-.010254-.005249-.038757.014832-.062805.044373Z" fill="#efb276" stroke-width="0"/><path d="M8.316614,1.885128c.014771.008545.049133-.011658.075989-.044495.026611-.032776.036743-.066589.02179-.075134-.014893-.008484-.049133.011597-.075928.044373-.0271.032959-.036804.066956-.021851.075256Z" fill="#efb276" stroke-width="0"/><path d="M8.241601,1.94128c-.023682.028748-.023682.050598-.014709.062317-.022278-.004028-.074768.025452-.123169.071899-.023315.022339-.039551.043518-.050476.061707-.092224.041382-.344849.262756-.454102.444031-.066528-.019775-.44873.222473-.660217.450989l-.001099.003174c-.035522.010559-.075745.059753-.134888.093933-.147766.085266-.365967.205627-.477722.301208.086243.027588.163147.060913.209167.1073.006958.007019.009094.016174.015625.023315.229553-.143066.534912-.389893.510742-.487061.12384-.040527.165405-.106812.241638-.18396.116089-.108459.346863-.151245.340698-.239014.263855-.266174.388489-.411865.426575-.477173.026855-.006836.065552-.028687.105225-.066711.045593-.04364.066101-.082275.057068-.097168.019653.001221.051147-.014465.076599-.045044.027527-.033813.035522-.066833.017273-.073242-.018311-.006409-.056274.016113-.084229.0495Z" fill="#efb276" stroke-width="0"/></g><g id="e"><path d="M5.192285,3.55682c.034241-.03302.080505-.061584.124207-.091248-.00647-.013794-.013-.02832-.025757-.032227-.008606-.002625-.017822.00531-.026978.008179.033386-.054749.008362-.150757-.073975-.231384-.090332-.088684-.207153-.121033-.258911-.071777-.051453.049377-.019714.162903.070618.251587.076904.075317.165833.098083.224609.076477-.012085.01416-.024536.028625-.031372.0495-.004761.014771-.001892.0271-.002441.040894Z" fill="#efb276" stroke-width="0"/><path d="M5.316492,5.239986c-.04364-.029663-.090027-.058289-.124207-.091248.000549.013733-.002319.026123.002441.040833.006836.020935.019348.035461.031433.049622-.058838-.021606-.147766.001099-.22467.076416-.090332.088684-.12207.202209-.070618.251587.051758.049255.168579.016907.258911-.071777.082397-.080688.107422-.176758.073975-.231445.009155.002869.018372.010803.026978.00824.012756-.003906.019287-.018433.025757-.032227Z" fill="#efb276" stroke-width="0"/></g><path d="M7.897485,4.43121c-.015991-.010315-.027649-.002502-.041626-.003052.000061,0,.000061-.000061.000122-.000061-.001343-.02533.001526-.047363-.00293-.075317.004456-.028076.001648-.05011.00293-.0755h-.000061c.013428-.000977.024353.006897.039551-.00293.061951-.040039.088562-.139587.08728-.224487-.001648-.084778-.030884-.124634-.092651-.084534-.023193.015015-.041321.044312-.059021.072632v-.000061c-.018921-.058472-.053772-.142151-.113037-.231079.00531.034424.008057.056152.005737.082031.000244.036926-.002991.067444-.013611.079102-.024048.026367-.058594.043579-.099243.053467-.081299.019836-.18689.010742-.281433-.011902-.047241-.011292-.091736-.026001-.129028-.042053-.035217-.015198-.073181-.04071-.111206-.070251-.009338-.007324-.017578-.015076-.026855-.023071-.031128-.02655-.059875-.055298-.087341-.087036-.005676-.006653-.011047-.012451-.016418-.019226-.067688-.083496-.111572-.173889-.101929-.24823v-.000061c-.000183,0-.00415.000305-.00415.000305,0,0-.039734.209229-.060364.338318-.000732.004517-.001465.010925-.002197.015625-.00238.013672-.006348.031067-.007324.041443-.001465.016663-.003479.032715-.005554.049255-.000732.005981-.001404.01239-.002075.018555-.002319.018494-.004822.046082-.007263.070129-.033997-.204834-.094788-.375671-.233398-.515381-.129761-.130676-.463806-.182922-.750244-.17926-.0755-.001099-.136353.000183-.168823.000183-.061829-.000061-.218445.052429-.23407.059204-.084229.036133-.138306.089478-.190796.140198-.120789.002136-.241699.002563-.305542-.004456-.033569-.003723-.092163-.02478-.162415-.052368-.177246-.088257-.418518-.200806-.723511-.263672-.10437-.026855-.205933-.041748-.301636-.045044-.00708-.000305-.012268-.002563-.019348-.002869-.007019-.000305-.014832.000427-.021973.000244-.004944.000061-.010498-.001099-.015381-.000916-.00824.000122-.016968.00116-.025208.001465-.138855.000671-.292725.020447-.45343.056946-.760803.157898-1.579712.614014-1.578125,1.098877,0,.002136.000854.004272.000916.006409-.000061.002075-.000916.004272-.000916.006409-.001587.484863.817322.940979,1.578125,1.098877.160706.036499.314575.056274.45343.056946.00824.000244.016968.001282.025208.001465.004883.000122.010437-.001038.015381-.000977.007141-.000183.014954.000549.021973.000305.00708-.000305.012268-.002563.019348-.00293.095703-.003235.197266-.018127.301636-.044983.304993-.062866.546265-.175476.723511-.263733.070251-.027527.128845-.048645.162415-.052307.063843-.007019.184753-.006592.305542-.004456.052429.050659.106567.104004.190796.140198.015625.006714.17218.059265.23407.059204.032471,0,.093323.001221.168823.000122.286438.003723.620483-.048523.750244-.179199.138611-.139709.199402-.310547.233398-.515381-.001831-.017578-.003601-.030273-.00531-.05127.004089.049744.008545.089355.012573.121338.000671.006226.001343.012573.002075.018616.002075.016479.004089.032532.005554.049255.000977.010376.004944.027771.007324.041443.000732.0047.001465.011108.002197.015564.02063.129089.060364.338318.060364.338318,0,0,.003967.000305.00415.000305h0c-.009583-.07428.034241-.164551.101807-.248047.005554-.006958.010986-.013062.016846-.019836.027283-.031433.055725-.059814.086548-.086182.00946-.00824.017944-.016174.027588-.023682.037964-.02948.075867-.054932.110962-.070068.14917-.064392.413452-.105957.509705-.000488.01062.011658.013855.042175.013611.079102.002258.025879-.000427.047607-.005737.082031h0c.059814-.089722.094971-.1745.113708-.232849.017944.029175.036682.05896.060364.074341.061768.0401.091003.000244.092651-.084534.001282-.0849-.02533-.184387-.08728-.224487ZM7.78219,4.512936v-.000061c.000549-.034607.011658-.055298.027344-.06842-.013611.016724-.026855.035278-.027344.068481Z" fill="#d08955" stroke-width="0"/><g id="f"><path d="M7.710142,4.737607c.058599.064187.033404.583844-.576852.589148-.548752.004783-.16912-.486647.067188-.588642.149135-.064377.413445-.105958.509664-.000506Z" fill="#c45e49" stroke-width="0"/><path d="M7.710142,3.967979c.058599-.064187.033404-.583844-.576852-.589148-.548752-.004783-.16912.486647.067188.588642.149135.064377.413445.105958.509664.000506Z" fill="#c45e49" stroke-width="0"/></g><g id="g"><path d="M4.011146,5.464295c-.032697-.071519-.224882-.513436-.224882-1.111517,0-.598022.192127-1.039881.224853-1.111487.057664.012221.102845.031326.155901.046551-.024442.080882-.187781.650261-.191718,1.045365,0,.000583-.000175.001254-.000204.001838-.000321.005571.000088.012075.000088.017734,0,.005629-.000408.012192-.000088.017763.000029.000583.000204.001225.000204.001838.003938.395104.167305.964571.191718,1.045365-.053056.015255-.098207.03433-.155871.046551Z" fill="#000" stroke-width="0"/><path d="M3.562579,3.194215c.017238-.000642.03608-.003558.052881-.003646.008254-.000292.016976-.001313.025172-.001488.0049-.000146.010442.001021.0154.000963.007117.000175.014963-.000554.021963-.000263.002654.000117.0049.000642.007204.001079-.026134.064285-.247487.623456-.254078,1.143163-.000058.003588-.000846.007204-.000933.010792-.000058.002654.000292.005308.000292.007963,0,.002625-.00035.005338-.000292.007963.000088.003588.000875.007204.000933.010792.006592.519707.227944,1.078907.254078,1.143193-.002304.000438-.00455.000963-.007204.001079-.007.000292-.014846-.000438-.021963-.000263-.004958-.000058-.0105.001108-.0154.000963-.008196-.000175-.016917-.001196-.025172-.001488-.016801-.000088-.035643-.003004-.052881-.003646-.048564-.083798-.270937-.502411-.270937-1.158593,0-.656211.222373-1.074795.270937-1.158564Z" fill="#000" stroke-width="0"/><path d="M3.162021,5.458097c-.029138-.006038-.058481-.015342-.087736-.022255-.044101-.079307-.27225-.516615-.27225-1.083049s.228149-1.003713.27225-1.08302c.029255-.006913.058598-.016217.087736-.022255.035322-.008021.06869-.012046.103253-.018434-.040776.075165-.254166.497423-.253641,1.109679,0,.000933-.000204.00175-.000233.002654-.000146.003996.000117.007438.000117.011375s-.000263.007409-.000117.011375c.000029.000933.000233.00175.000233.002683-.000525.612168.212836,1.034398.253641,1.10965-.034564-.006388-.067931-.010384-.103253-.018405Z" fill="#000" stroke-width="0"/><path d="M2.34462,4.353342c0-.000178-.000029-.000385-.000029-.000563s.000029-.000356.000029-.000534c.000073-.338238.159751-.789302.203619-.90696l.145634-.066598s-.074906.190003-.131371.491034c-.024709.131732-.045939.280506-.045939.446912,0,.012543.001283.02375.001283.036146s-.001283.023633-.001283.036175c0,.166406.02123.31518.045939.446912.056464.301032.131371.491034.131371.491034l-.145634-.066598c-.043868-.117658-.203546-.568722-.203619-.90696Z" fill="#000" stroke-width="0"/><path d="M2.222622,3.665781s-.038384.21374-.043897.2859c-.00175.022984,0,.092169,0,.092169.003442.012834.009188.030188.013621.052764.013534.069069.021671.148521.031268.206331.001954.011755.000408.027213.000408.040426,0,.013242.001546.02873-.000408.040485-.009596.05781-.017734.137233-.031268.206331-.004433.022576-.010179.039901-.013621.052764,0,0-.0021.083215,0,.110837.005513.07219.033572.214352.043897.285929.002508.017355.006242.054193.008196.073619-.065044-.036226-.127375-.073415-.185243-.113053-.006446-.017005-.01505-.036401-.020709-.059006-.027826-.110632-.084819-.385566-.084819-.588543s.056993-.477881.084819-.588543c.005659-.022547.014234-.041943.02068-.058977.057839-.03961.120141-.07674.185126-.112966l-.00805.073531Z" fill="#000" stroke-width="0"/><path d="M1.80083,4.102784v.116553c.010967.015517.046231.06796.046231.133442s-.035264.117895-.046231.133412v.308009c-.064606-.067173-.116758-.136358-.152896-.207819-.011434-.023101-.023567-.045268-.032551-.070352-.013417-.038268-.019688-.076973-.023276-.115853-.00175-.01508-.007613-.029168-.007729-.044481.000204-.000963.000408-.001954.000438-.002917-.000029-.000963-.000233-.001954-.000438-.002917.000117-.015284.005979-.029255.0077-.044276.003558-.038968.009859-.077761.023305-.116087.008954-.025026.021059-.047164.032463-.070206.036139-.07146.088348-.140704.152984-.207906v.191397Z" fill="#000" stroke-width="0"/></g><g id="h"><path d="M5.152804,4.781599c.010782-.021563-.269506-1.379445-2.170522-1.336317C1.081267,3.488378-.063281,4.4044.002707,4.900155c.043302.325247.367886.682998.996075.887526.329242.10719.741883.172325,1.241113.168599,1.451798-.010766,1.986011-.387966,2.029122-.323305.043113.064661.46341-.032331.949617-.075427.486205-.043127.792272-.140119.977464-.226314.18519-.086225-1.043293-.549635-1.043293-.549635Z" fill="#ccebf2" opacity=".5" stroke-width="0"/><path d="M5.163587,3.923972c.010782.021564-.269506,1.379446-2.170522,1.336317C1.092049,5.217193-.052499,4.301172.013489,3.805416c.043302-.325261.367886-.682982.996075-.88751.329242-.107221.741883-.172325,1.241113-.168599,1.451798.010766,1.98601.387966,2.029122.323305s.46341.032331.949617.075427c.486205.043129.792272.14012.977464.226314.18519.086225-1.043293.549619-1.043293.549619Z" fill="#ccebf2" opacity=".5" stroke-width="0"/></g></svg>