<?xml version="1.0" encoding="UTF-8"?>
<svg id="Layer_1" data-name="Layer 1" xmlns="http://www.w3.org/2000/svg" viewBox="0 0 8.5039 8.6614">
  <g id="legs">
    <path id="leg_rh" d="M5.0343,5.1242h0c-.0601.0004-.1141.0017-.1493.0056-.0336.0037-.0922.0248-.1624.0523-.0386.0192-.092.0408-.1367.0616-.0529.0673-.1053.1342-.1531.1901-.0746.0873-.1398.1885-.197.1897l.0066.0106c-.5856.1996-1.0342.281-1.1418.3472l-.0083-.0128c-.5022.2813-.721.431-.7789.4958-.0411-.0068-.1257.0187-.2139.0723-.0739.045-.1108.0872-.1209.1177-.0338-.0027-.0846.0132-.1316.0501-.0426.0333-.0579.0654-.0555.0885-.0256-.0121-.0778-.0037-.1309.0277-.0599.0356-.0942.0825-.0754.1039.001.0012.0048,0,.006.0009-.0191-.0078-.066.0042-.1151.033l-.0101.0057c-.0543.0317-.088.0693-.0744.083.0139.0137.0697-.0009.124-.033l.0052-.0028.0047-.0029c.0536-.0314.0858-.0677.0739-.0819.0261.0117.0775.0034.13-.0277.0471-.028.0695-.0595.0718-.0837.0308.0118.0939-.0085.1477-.0507.0384-.0299.0537-.0585.0563-.0817.0451.0005.1199-.0221.2006-.0712.0651-.0395.101-.0767.1184-.1071.1277-.0126.6151-.2435.79-.4412.123.0665.4345.0308.6285-.0156.2418-.058.3558-.1068.5829-.2112l-.0022-.0101c.1524-.0648.4738-.4024.7109-.7022Z" fill="#efb276" stroke-width="0"/>
    <path id="leg_lh" d="M5.0343,3.5372h0c-.0601-.0004-.1141-.0017-.1493-.0056-.0336-.0037-.0922-.0248-.1624-.0523-.0386-.0192-.092-.0408-.1367-.0616-.0529-.0673-.1053-.1342-.1531-.1901-.0746-.0873-.1398-.1885-.197-.1897l.0066-.0106c-.5856-.1996-1.0342-.281-1.1418-.3472l-.0083.0128c-.5022-.2813-.721-.431-.7789-.4958-.0411.0068-.1257-.0187-.2139-.0723-.0739-.045-.1108-.0872-.1209-.1177-.0338.0027-.0846-.0132-.1316-.0501-.0426-.0333-.0579-.0654-.0555-.0885-.0256.0121-.0778.0037-.1309-.0277-.0599-.0356-.0942-.0825-.0754-.1039.001-.0012.0048,0,.006-.0009-.0191.0078-.066-.0042-.1151-.033l-.0101-.0057c-.0543-.0317-.088-.0693-.0744-.083.0139-.0137.0697.0009.124.033l.0052.0028.0047.0029c.0536.0314.0858.0677.0739.0819.0261-.0117.0775-.0034.13.0277.0471.028.0695.0595.0718.0837.0308-.0118.0939.0085.1477.0507.0384.0299.0537.0585.0563.0817.0451-.0005.1199.0221.2006.0712.0651.0395.101.0767.1184.1071.1277.0126.6151.2435.79.4412.123-.0665.4345-.0308.6285.0156.2418.058.3558.1068.5829.2112l-.0022.0101c.1524.0648.4738.4024.7109.7022Z" fill="#efb276" stroke-width="0"/>
    <path id="leg_rm" d="M6.0258,8.5802l-.0013-.0085c-.0053-.0382-.0191-.0609-.0315-.0722.0018.0005.0046.0045.006.0045.0211.001.0326-.0403.0256-.0914-.0061-.0443-.0263-.0706-.0445-.0825.0205.0009.0344-.0323.0303-.0819-.0032-.0396-.0174-.071-.0334-.0905.0134-.0185.0185-.0618.0052-.1277-.0117-.0587-.0317-.1029-.0517-.1326.0078-.1218-.1285-.761-.2101-.8464l-.0546.0116c.1122-.1002-.0558-.3732-.0865-.5723-.017-.1378-.0161-.24-.1094-.3639.0189-.0165.0377-.04.0552-.0815.0361-.1533.0544-.4753.044-.7294-.0002,0-.0003-.0001-.0005-.0001-.0724-.0126-.1744-.0443-.1874-.0498-.0226-.0097-.0324-.0258-.0512-.0376.0019.0211.0058.04.0024.065-.0378.28-.1151.7473-.0249.808.0353.3597.2751.9922.3286.996.0084-.0028.0065-.0119.0134-.0156.1302.4743.2063.7086.2461.7957-.0161.0141-.022.0615-.0078.1324.013.0644.0359.1126.0576.1397-.013.0113-.0222.035-.019.0735.0038.0454.0213.0829.0406.099-.0178.0037-.0335.0346-.0358.0807-.002.0415.0275.0745.0509.0891-.0099.0079-.0151.0352-.0095.0746l.0005.0042.0007.0043c.0065.0461.0236.0853.038.0868.0142.0017.0204-.035.0139-.0811Z" fill="#efb276" stroke-width="0"/>
    <path id="leg_lm" d="M6.0258.0812l-.0013.0085c-.0053.0382-.0191.0609-.0315.0722.0018-.0005.0046-.0045.006-.0045.0211-.001.0326.0403.0256.0914-.0061.0443-.0263.0706-.0445.0825.0205-.0009.0344.0323.0303.0819-.0032.0396-.0174.071-.0334.0905.0134.0185.0185.0618.0052.1277-.0117.0587-.0317.1029-.0517.1326.0078.1218-.1285.761-.2101.8464l-.0546-.0116c.1122.1002-.0558.3732-.0865.5723-.017.1378-.0161.24-.1094.3639.0189.0165.0377.04.0552.0815.0361.1533.0544.4753.044.7294-.0002,0-.0003.0001-.0005.0001-.0724.0126-.1744.0443-.1874.0498-.0226.0097-.0324.0258-.0512.0376.0019-.0211.0058-.04.0024-.065-.0378-.28-.1151-.7473-.0249-.808.0353-.3597.2751-.9922.3286-.996.0084.0028.0065.0119.0134.0156.1302-.4743.2063-.7086.2461-.7957-.0161-.0141-.022-.0615-.0078-.1324.013-.0644.0359-.1126.0576-.1397-.013-.0113-.0222-.035-.019-.0735.0038-.0454.0213-.0829.0406-.099-.0178-.0037-.0335-.0346-.0358-.0807-.002-.0415.0275-.0745.0509-.0891-.0099-.0079-.0151-.0352-.0095-.0746l.0005-.0042.0007-.0043c.0065-.0461.0236-.0853.038-.0868.0142-.0017.0204.035.0139.0811Z" fill="#efb276" stroke-width="0"/>
    <path id="leg_rf" d="M8.4749,6.94l-.0043-.0054c-.0226-.0273-.0468-.0426-.0588-.0413.0081-.0124.0043-.0375-.0192-.0664-.024-.0293-.0511-.042-.0678-.0397.0142-.009.0096-.037-.0162-.0688-.0255-.0306-.0569-.0463-.0766-.045.009-.0149-.0115-.0535-.0571-.0972-.0397-.038-.0784-.0599-.1052-.0667-.0381-.0653-.1627-.211-.4266-.4772.0062-.0878-.2246-.1306-.3407-.239-.0762-.0771-.1178-.1434-.2416-.184.0243-.0972-.2812-.3441-.5107-.4871-.0065.0071-.0087.0164-.0156.0234-.046.0464-.1229.0797-.2092.1073.1118.0956.33.2159.4777.3012.0591.0342.0994.0832.1349.0938l.0011.0033c.2115.2285.5937.4708.6602.451.1093.1813.3619.4026.4541.444.0109.0182.0272.0394.0505.0617.0484.0464.1009.0759.1232.0719-.009.0117-.009.0336.0147.0623.0253.0303.0566.0459.0764.0449-.0112.0107-.0049.0397.0205.0707.0257.0314.0571.0485.0729.0426-.003.0101.001.0281.0214.053l.0021.0026.0025.0026c.024.0295.0526.0496.0628.0444.0103-.0052-.0011-.0336-.0253-.0629Z" fill="#efb276" stroke-width="0"/>
    <path id="leg_lf" d="M8.4749,1.7214l-.0043.0054c-.0226.0273-.0468.0426-.0588.0413.0081.0124.0043.0375-.0192.0664-.024.0293-.0511.042-.0678.0397.0142.009.0096.037-.0162.0688-.0255.0306-.0569.0463-.0766.045.009.0149-.0115.0535-.0571.0972-.0397.038-.0784.0599-.1052.0667-.0381.0653-.1627.211-.4266.4772.0062.0878-.2246.1306-.3407.239-.0762.0771-.1178.1434-.2416.184.0243.0972-.2812.3441-.5107.4871-.0065-.0071-.0087-.0164-.0156-.0234-.046-.0464-.1229-.0797-.2092-.1073.1118-.0956.33-.2159.4777-.3012.0591-.0342.0994-.0832.1349-.0938l.0011-.0033c.2115-.2285.5937-.4708.6602-.451.1093-.1813.3619-.4026.4541-.444.0109-.0182.0272-.0394.0505-.0617.0484-.0464.1009-.0759.1232-.0719-.009-.0117-.009-.0336.0147-.0623.0253-.0303.0566-.0459.0764-.0449-.0112-.0107-.0049-.0397.0205-.0707.0257-.0314.0571-.0485.0729-.0426-.003-.0101.001-.0281.0214-.053l.0021-.0026.0025-.0026c.024-.0295.0526-.0496.0628-.0444.0103.0052-.0011.0336-.0253.0629Z" fill="#efb276" stroke-width="0"/>
  </g>
  <g id="halteres">
    <path id="haltere_r" d="M5.3165,5.2179c-.0436-.0297-.09-.0583-.1242-.0912.0005.0137-.0023.0261.0024.0408.0068.0209.0193.0355.0314.0496-.0588-.0216-.1478.0011-.2247.0764-.0903.0887-.1221.2022-.0706.2516.0518.0493.1686.0169.2589-.0718.0824-.0807.1074-.1768.074-.2314.0092.0029.0184.0108.027.0082.0128-.0039.0193-.0184.0258-.0322Z" fill="#efb276" stroke-width="0"/>
    <path id="haltere_l" d="M5.1923,3.5347c.0342-.033.0805-.0616.1242-.0912-.0065-.0138-.013-.0283-.0258-.0322-.0086-.0026-.0178.0053-.027.0082.0334-.0547.0084-.1508-.074-.2314-.0903-.0887-.2072-.121-.2589-.0718-.0515.0494-.0197.1629.0706.2516.0769.0753.1658.0981.2246.0765-.0121.0142-.0245.0286-.0314.0495-.0048.0148-.0019.0271-.0024.0409Z" fill="#efb276" stroke-width="0"/>
  </g>
  <path id="body" d="M7.8975,4.4091c-.016-.0103-.0276-.0025-.0416-.0031,0,0,0,0,.0001,0-.0013-.0253.0015-.0474-.0029-.0753.0045-.0281.0016-.0501.0029-.0755h0c.0134-.001.0244.0069.0396-.0029.062-.04.0886-.1396.0873-.2245-.0016-.0848-.0309-.1246-.0927-.0845-.0232.015-.0413.0443-.059.0726h0c-.0189-.0585-.0538-.1422-.113-.2311.0053.0344.0081.0562.0057.082.0002.0369-.003.0674-.0136.0791-.024.0264-.0586.0436-.0992.0535-.0813.0198-.1869.0107-.2814-.0119-.0472-.0113-.0917-.026-.129-.0421-.0352-.0152-.0732-.0407-.1112-.0703-.0093-.0073-.0176-.0151-.0269-.0231-.0311-.0266-.0599-.0553-.0873-.087-.0057-.0067-.011-.0125-.0164-.0192-.0677-.0835-.1116-.1739-.1019-.2482h0s-.0042.0002-.0042.0002c0,0-.0397.2092-.0604.3383-.0007.0045-.0015.0109-.0022.0156-.0024.0137-.0063.0311-.0073.0414-.0015.0167-.0035.0327-.0056.0493-.0007.006-.0014.0124-.0021.0186-.0023.0185-.0048.0461-.0073.0701-.034-.2048-.0948-.3757-.2334-.5154-.1298-.1307-.4638-.1829-.7502-.1793-.0755-.0011-.1364.0002-.1688.0002-.0618,0-.2184.0524-.2341.0592-.0842.0361-.1383.0895-.1908.1402-.1208.0021-.2417.0026-.3055-.0045-.0336-.0037-.0922-.0248-.1624-.0524-.1772-.0883-.4185-.2008-.7235-.2637-.1044-.0269-.2059-.0417-.3016-.045-.0071-.0003-.0123-.0026-.0193-.0029-.007-.0003-.0148.0004-.022.0002-.0049,0-.0105-.0011-.0154-.0009-.0082.0001-.017.0012-.0252.0015-.1389.0007-.2927.0204-.4534.0569-.7608.1579-1.5797.614-1.5781,1.0989,0,.0021.0009.0043.0009.0064,0,.0021-.0009.0043-.0009.0064-.0016.4849.8173.941,1.5781,1.0989.1607.0365.3146.0563.4534.0569.0082.0002.017.0013.0252.0015.0049.0001.0104-.001.0154-.001.0071-.0002.015.0005.022.0003.0071-.0003.0123-.0026.0193-.0029.0957-.0032.1973-.0181.3016-.045.305-.0629.5463-.1755.7235-.2637.0703-.0275.1288-.0486.1624-.0523.0638-.007.1848-.0066.3055-.0045.0524.0507.1066.104.1908.1402.0156.0067.1722.0593.2341.0592.0325,0,.0933.0012.1688.0001.2864.0037.6205-.0485.7502-.1792.1386-.1397.1994-.3105.2334-.5154-.0018-.0176-.0036-.0303-.0053-.0513.0041.0497.0085.0894.0126.1213.0007.0062.0013.0126.0021.0186.0021.0165.0041.0325.0056.0493.001.0104.0049.0278.0073.0414.0007.0047.0015.0111.0022.0156.0206.1291.0604.3383.0604.3383,0,0,.004.0003.0042.0003h0c-.0096-.0743.0342-.1646.1018-.248.0056-.007.011-.0131.0168-.0198.0273-.0314.0557-.0598.0865-.0862.0095-.0082.0179-.0162.0276-.0237.038-.0295.0759-.0549.111-.0701.1492-.0644.4135-.106.5097-.0005.0106.0117.0139.0422.0136.0791.0023.0259-.0004.0476-.0057.082h0c.0598-.0897.095-.1745.1137-.2328.0179.0292.0367.059.0604.0743.0618.0401.091.0002.0927-.0845.0013-.0849-.0253-.1844-.0873-.2245ZM7.7822,4.4909h0c.0005-.0347.0117-.0554.0273-.0685-.0136.0167-.0269.0353-.0273.0685Z" fill="#d08955" stroke-width="0"/>
  <g id="eyes">
    <path id="eye_r" d="M7.7101,4.7155c.0586.0642.0334.5838-.5769.5891-.5488.0048-.1691-.4866.0672-.5886.1491-.0644.4134-.106.5097-.0005Z" fill="#c45e49" stroke-width="0"/>
    <path id="eye_l" d="M7.7101,3.9459c.0586-.0642.0334-.5838-.5769-.5891-.5488-.0048-.1691.4866.0672.5886.1491.0644.4134.106.5097.0005Z" fill="#c45e49" stroke-width="0"/>
  </g>
  <g id="stripes">
    <path id="stripe_6" d="M1.8008,4.0807v.1166c.011.0155.0462.068.0462.1334s-.0353.1179-.0462.1334v.308c-.0646-.0672-.1168-.1364-.1529-.2078-.0114-.0231-.0236-.0453-.0326-.0704-.0134-.0383-.0197-.077-.0233-.1159-.0018-.0151-.0076-.0292-.0077-.0445.0002-.001.0004-.002.0004-.0029,0-.001-.0002-.002-.0004-.0029.0001-.0153.006-.0293.0077-.0443.0036-.039.0099-.0778.0233-.1161.009-.025.0211-.0472.0325-.0702.0361-.0715.0883-.1407.153-.2079v.1914Z" fill="#000" stroke-width="0"/>
    <path id="stripe_5" d="M2.2226,3.6437s-.0384.2137-.0439.2859c-.0018.023,0,.0922,0,.0922.0034.0128.0092.0302.0136.0528.0135.0691.0217.1485.0313.2063.002.0118.0004.0272.0004.0404,0,.0132.0015.0287-.0004.0405-.0096.0578-.0177.1372-.0313.2063-.0044.0226-.0102.0399-.0136.0528,0,0-.0021.0832,0,.1108.0055.0722.0336.2144.0439.2859.0025.0174.0062.0542.0082.0736-.065-.0362-.1274-.0734-.1852-.1131-.0064-.017-.0151-.0364-.0207-.059-.0278-.1106-.0848-.3856-.0848-.5885s.057-.4779.0848-.5885c.0057-.0225.0142-.0419.0207-.059.0578-.0396.1201-.0767.1851-.113l-.0081.0735Z" fill="#000" stroke-width="0"/>
    <path id="stripe_4" d="M2.3446,4.3313s0-.0004,0-.0006,0-.0004,0-.0005c0-.3382.1598-.7893.2036-.907l.1456-.0666s-.0749.19-.1314.491c-.0247.1317-.0459.2805-.0459.4469,0,.0125.0013.0238.0013.0361s-.0013.0236-.0013.0362c0,.1664.0212.3152.0459.4469.0565.301.1314.491.1314.491l-.1456-.0666c-.0439-.1177-.2035-.5687-.2036-.907Z" fill="#000" stroke-width="0"/>
    <path id="stripe_3" d="M3.162,5.436c-.0291-.006-.0585-.0153-.0877-.0223-.0441-.0793-.2722-.5166-.2722-1.083s.2281-1.0037.2722-1.083c.0293-.0069.0586-.0162.0877-.0223.0353-.008.0687-.012.1033-.0184-.0408.0752-.2542.4974-.2536,1.1097,0,.0009-.0002.0018-.0002.0027-.0001.004.0001.0074.0001.0114s-.0003.0074-.0001.0114c0,.0009.0002.0018.0002.0027-.0005.6122.2128,1.0344.2536,1.1096-.0346-.0064-.0679-.0104-.1033-.0184Z" fill="#000" stroke-width="0"/>
    <path id="stripe_2" d="M3.5626,3.1721c.0172-.0006.0361-.0036.0529-.0036.0083-.0003.017-.0013.0252-.0015.0049-.0001.0104.001.0154.001.0071.0002.015-.0006.022-.0003.0027.0001.0049.0006.0072.0011-.0261.0643-.2475.6235-.2541,1.1432,0,.0036-.0008.0072-.0009.0108,0,.0027.0003.0053.0003.008,0,.0026-.0004.0053-.0003.008,0,.0036.0009.0072.0009.0108.0066.5197.2279,1.0789.2541,1.1432-.0023.0004-.0046.001-.0072.0011-.007.0003-.0148-.0004-.022-.0003-.005,0-.0105.0011-.0154.001-.0082-.0002-.0169-.0012-.0252-.0015-.0168,0-.0356-.003-.0529-.0036-.0486-.0838-.2709-.5024-.2709-1.1586s.2224-1.0748.2709-1.1586Z" fill="#000" stroke-width="0"/>
    <path id="stripe_1" d="M4.0111,5.4422c-.0327-.0715-.2249-.5134-.2249-1.1115s.1921-1.0399.2249-1.1115c.0577.0122.1028.0313.1559.0466-.0244.0809-.1878.6503-.1917,1.0454,0,.0006-.0002.0013-.0002.0018-.0003.0056,0,.0121,0,.0177,0,.0056-.0004.0122,0,.0178,0,.0006.0002.0012.0002.0018.0039.3951.1673.9646.1917,1.0454-.0531.0153-.0982.0343-.1559.0466Z" fill="#000" stroke-width="0"/>
  </g>
  <g id="wings">
    <path id="wing_r" d="M5.1528,4.7595c.0108-.0216-.2695-1.3794-2.1705-1.3363C1.0813,3.4663-.0633,4.3823.0027,4.8781c.0433.3252.3679.683.9961.8875.3292.1072.7419.1723,1.2411.1686,1.4518-.0108,1.986-.388,2.0291-.3233.0431.0647.4634-.0323.9496-.0754.4862-.0431.7923-.1401.9775-.2263.1852-.0862-1.0433-.5496-1.0433-.5496Z" fill="#ccebf2" opacity=".5" stroke-width="0"/>
    <path id="wing_l" d="M5.1636,3.9019c.0108.0216-.2695,1.3794-2.1705,1.3363C1.092,5.1951-.0525,4.2791.0135,3.7833c.0433-.3253.3679-.683.9961-.8875.3292-.1072.7419-.1723,1.2411-.1686,1.4518.0108,1.986.388,2.0291.3233s.4634.0323.9496.0754c.4862.0431.7923.1401.9775.2263.1852.0862-1.0433.5496-1.0433.5496Z" fill="#ccebf2" opacity=".5" stroke-width="0"/>
  </g>
</svg>