<?xml version="1.0" encoding="UTF-8"?>
<svg id="Layer_1" data-name="Layer 1" xmlns="http://www.w3.org/2000/svg" viewBox="0 0 115.6184 266.083">
  <path id="Tergopleural-Pleural-promotor"
    d="M62.4478,38.3378c.1646-.5441,1.398-3.6035,1.7388-4.4594.7687-1.9421,1.5065-3.8862,2.3004-5.8167.9585-2.3294,1.8802-4.8466,2.4959-7.2961.6951-2.7554,1.1366-5.7219,2.2636-8.3417,1.1792-2.7457,3.3924-5.3404,5.5495-7.3678,1.4619-1.3748,3.0226-2.6179,4.7034-3.7003.4802-.3079,1.522-1.0069,2.1164-.5809.8907.6409-.6797,4.775-1.0708,5.7122-.7416,1.7737-1.4406,3.5919-2.1222,5.4024-2.2577,5.9929-4.2251,12.1582-6.8546,17.9982-1.4542,3.2298-3.2298,6.3337-4.744,9.5384-.9875,2.0874-2.1997,3.9462-3.4409,5.8748-.577.8985-1.6807,1.6265-2.6353.8326-1.8608-1.5529-.8888-5.8342-.3001-7.7957Z"
    fill="#2280b8" fill-rule="evenodd" stroke="#000" stroke-linecap="round" stroke-linejoin="round" stroke-width="1.2819"
  />
  <path id="Pleural-remotor-abductor"
    d="M5.5157,45.5255c-.0445-.3369.4744-.9662.6061-1.0146.6951-.2614,1.4368-.3698,2.1764-.4221,2.1939-.1568,5.9465-.2304,8.0919.0058,2.0138.2227,4.0566.1491,6.0801.2846,3.3382.2207,6.7365.8191,10.0283.9624,1.2334.0542,2.4766-.2014,3.7139-.0465,3.0943.3873,6.206,1.0959,9.1956,1.8995,1.0282.2769,2.0738.3679,3.0478.8501,1.0011.4976,2.4649,1.4368,2.9084,2.5269.4841,1.1947-.4202,3.1427-1.5975,3.5609-.6487.2304-1.4348.2517-2.1164.2769-6.6319.2537-13.2697.3543-19.8958.1007-3.5474-.1375-7.5556.4202-11.0468-.397-3.0749-.7203-6.3047-1.6246-8.456-4.0624-.8597-.972-1.6962-2.0196-2.2965-3.1795-.1975-.3834-.3815-.9159-.4396-1.3457Z"
    fill="#7b2dba" fill-rule="evenodd" stroke="#000" stroke-linecap="round" stroke-linejoin="round" stroke-width="1.2819"
  />
  <path id="Tergotr."
    d="M51.8561,39.2673c-.1975-3.7158-.9953-14.1178-1.1095-15.4597-.3427-4.0198-.5886-10.9538-.2943-15.328.0755-1.1347.2924-2.4708.5325-3.5822.0523-.2401.1568-1.0166.546-.9101.9352.2556,1.2644,2.0757,1.5355,2.8096,1.1134,2.9917,1.5181,6.5293,1.5181,9.703,0,2.9277-.1472,5.9329.0542,8.8704.2459,3.5938.7629,7.1586.8771,10.7699.0716,2.2771-.182,4.5446-.1065,6.8198.0929,2.7825.9701,9.1434,1.1928,11.9259.0678.8501-.306,8.3727.2188,10.981.0716.3602.2769,3.0246-.0871,3.1465-.2266.0755-1.3922-2.2888-1.4677-2.5095-.5906-1.6846-2.3314-5.2029-2.3798-7.5885-.06-3.0401-.182-6.113-.2924-6.9766-.1026-.8268-.5054-4.4923-.5596-6.5622-.0542-2.0293-.0697-4.0779-.1781-6.1091Z"
    fill="#efe952" fill-rule="evenodd" stroke="#000" stroke-linecap="round" stroke-linejoin="round" stroke-width="1.2819"
  />
  <path id="Sternotrochanter"
    d="M56.711,39.1342c.067-3.7205.0104-14.1529-.0082-15.4995-.0562-4.034.1912-10.968.7956-15.3102.156-1.1265.4672-2.4437.7857-3.5353.0692-.2358.2287-1.0029.6093-.869.9147.3214,1.1137,2.1603,1.332,2.9116.898,3.0632,1.0503,6.6207.8248,9.7863-.208,2.9203-.5684,5.9075-.5762,8.8518-.0101,3.6022-.7572,4.7972-.8979,8.4076-.0902,2.2745.085,4.9931-.0014,7.2679-.105,2.7821-.3897,4.6797-.3653,7.471.0072.8527-1.0688,6.1747-1.4405,6.2685-.2314.0592-1.3301,11.9681-1.3918,11.7444-.4675-1.7222-.156-5.4408-.0347-7.8237.1562-3.0366.2528-6.1105.2041-6.9798-.0436-.832-.1849-4.5168-.0919-6.5854.0901-2.028.2202-4.0726.2564-6.1063Z"
    fill="#ccf750" fill-rule="evenodd" stroke="#000" stroke-linecap="round" stroke-linejoin="round" stroke-width="1.2819"
  />
  <path id="Sternal-posterior-rotator"
    d="M41.1133,43.9435c-2.5985-.6932-6.6068-3.7952-7.9138-4.8428-1.8608-1.491-5.2707-4.5891-7.9332-7.7705-.4608-.5519-2.6896-3.5667-3.0671-4.1728-1.1483-1.8376-2.2791-3.5783-3.3286-5.4934-1.3942-2.5463-2.6915-11.1339.3273-13.0567,3.1737-2.0254,8.6961-.6583,12.2628.9372,2.6353,1.1792,8.3882,8.9342,10.129,11.2365.7358.974,6.3066,9.4939,6.7965,12.2454.3272,1.8492,1.4542,7.4259-.6274,10.9171-1.4019,2.3507-4.8544.4764-6.6455,0Z"
    fill="#ae22ba" fill-rule="evenodd" stroke="#000" stroke-linecap="round" stroke-linejoin="round" stroke-width="1.2819"
  />
  <path id="Sternal-anterior-rotator"
    d="M68.1852,55.4202c-1.3651-.2517-5.5786-2.4766-4.8292-6.1207.8752-4.2541,6.7462-3.5493,10.522-4.198,7.116-1.2199,23.2612-.4764,30.2397,1.3729,9.6507,2.554,10.7234,5.7954,10.8551,8.1829.2033,3.6926-6.3047,5.9988-8.5256,5.9794-3.3034-.031-20.2541-2.3294-23.7685-2.8968-4.8331-.7765-9.6739-1.4329-14.4935-2.3197Z"
    fill="#33c0d0" fill-rule="evenodd" stroke="#000" stroke-linecap="round" stroke-linejoin="round" stroke-width="1.2819"
  />
  <path id="Sternal-adductor"
    d="M61.9909,60.0364c.7397-3.2705,5.9058-3.1311,8.3514-2.5076.9701.2479,6.9999,3.1853,9.3409,3.8068,1.6149.4279,8.2101,1.704,9.9024,2.0119,2.9781.5402,6.053.5267,9.0427.9352,2.769.3815,6.2311-.3311,8.758.5015.7261.2401,2.1803.4551,2.3081,1.4774.6099,4.8815-7.1529,3.9831-10.1212,3.6868-1.6517-.1646-3.2608-.6622-4.9106-.8559-7.9545-.943-15.7017-2.4611-23.5226-4.2425-2.6644-.6061-8.2836-1.5007-9.1492-4.8137Z"
    fill="#145e67" fill-rule="evenodd" stroke="#000" stroke-linecap="round" stroke-linejoin="round" stroke-width="1.2819"
  />
  <path id="Tr-extensor"
    d="M58.4842,81.7427c-.364-1.1909-.8481-7.7821-1.0921-9.155-.3989-2.2481-.3757-4.5581-.6448-6.8275-.2401-2.0235-1.278-9.7417-.4396-10.644.6641-.7165,1.9538.424,2.5347.8636.7319.5557,3.3866,4.5814,3.9327,6.2466,1.5704,4.7827,3.1814,9.8211,4.0992,14.7858.395,2.1358.4124,4.2754.6525,6.419.364,3.2627.8617,6.6804-1.8666,9.1492-.2478.2246-1.1095.972-1.4348,1.0805-3.7855,1.2547-4.3471-4.4284-4.8176-6.8139-.151-.7668-.6429-4.1844-.9236-5.1042Z"
    fill="#faa400" fill-rule="evenodd" stroke="#000" stroke-linecap="round" stroke-linejoin="round" stroke-width="1.2819"
  />
  <path id="Tr-flexor"
    d="M55.3434,64.6584c.0832.0465-1.3903-4.9028-2.9761-7.1393-.5151-.7281-2.4456-2.07-3.1601-2.5753-1.9053-1.3438-8.6225-.304-8.8355.9043-.2091,1.1715.2091,2.4069.3389,3.5609.1472,1.3264.1046,2.6973.2053,4.0315.182,2.3991.0426,4.9008.486,7.2613,1.1947,6.3454,3.5493,11.589,6.3628,17.3186,1.6226,3.3073,3.8262,9.0911,8.1036,9.4183.4608.0349,1.2025.1413,1.6246-.0852,1.3283-.7126,2.0816-5.5573,2.0816-6.965,0-2.5463-.821-5.8942-1.3031-8.4289-.8927-4.6898-2.0971-12.6501-2.9277-17.3011Z"
    fill="#311ee2" fill-rule="evenodd" stroke="#000" stroke-linecap="round" stroke-linejoin="round" stroke-width="1.2819"
  />
  <path id="Fe-reductor"
    d="M53.4807,103.8498c-.1259-.3195.2033-1.1812.5576-1.4871,1.2005-1.0301,2.3778-2.0932,3.6132-3.0923.9972-.8075,2.0215-1.5897,3.0284-2.3875.9546-.759,1.7079-1.1715,2.7748-1.7291.304-.1588.9992-.5325,1.3438-.244.2982.2498.1084,1.2683.0988,1.5839-.0503,1.7408-.3911,2.9936-.9972,4.6104-.8191,2.1823-2.0254,4.4323-3.3208,6.3647-.3234.4802-1.2044,1.5723-1.8434,1.5103-1.4406-.1433-2.281-1.2063-3.1678-2.2733-.8423-1.0127-1.8085-2.1493-2.0874-2.8561Z"
    fill="#f82401" fill-rule="evenodd" stroke="#000" stroke-linecap="round" stroke-linejoin="round" stroke-width="1.2819"
  />
  <path id="Ti-extensor"
    d="M53.4129,108.9521c.0852-.2382.9817-1.3768.7126-2.0506-.4415-1.1056-1.8608-2.3643-3.0091-2.6315-1.8279-.4299-3.9927,1.0243-5.5883,1.7601-5.5398,2.556-10.28,6.4732-14.9466,10.3478-3.772,3.1349-7.5246,6.1188-10.9655,9.6429-2.7728,2.8387-6.4093,7.7337-3.4467,11.6606.548.7261,1.4735.881,2.1454.5596,1.6285-.7784,3.2182-1.9925,4.6298-3.1252,2.3527-1.886,4.7789-3.8514,7.0657-5.8109,3.5203-3.0207,5.3927-4.4846,9.1724-7.1799,1.5859-1.1308,5.4547-4.3103,7.0095-5.4876,2.1164-1.6052,3.4331-2.9064,5.1835-4.9028.7474-.8501,1.6459-1.6924,2.037-2.7825Z"
    fill="#fbc700" fill-rule="evenodd" stroke="#000" stroke-linecap="round" stroke-linejoin="round" stroke-width="1.2819"
  />
  <path id="Ti-flexor"
    d="M47.1643,121.5227c-1.6246-1.4193-3.557-2.2558-3.9036-2.039-1.0417.6545-4.2754,3.2627-5.2475,4.0237-2.6818,2.1048-9.6972,7.9099-11.0371,8.9033-1.3903,1.0321-7.0211,5.6328-8.0745,6.5274-1.3361,1.1308-2.1842,3.2492-2.9781,4.7653-.699,1.3341-1.6924,2.5521-2.2965,3.9172-.6932,1.5665-2.31,4.442-1.9731,4.7789.3485.3505,5.6851-2.7477,8.1345-3.9075,4.7886-2.2655,9.4454-5.3346,13.7015-8.4753,1.6343-1.2063,6.7326-5.5611,8.0455-6.963.6371-.6797,4.4865-5.0596,5.7161-6.8275.5151-.7397,1.307-2.2558,1.1366-3.1795-.1452-.8036-.6661-1.0359-1.2238-1.5239Z"
    fill="#3456e2" fill-rule="evenodd" stroke="#000" stroke-linecap="round" stroke-linejoin="round" stroke-width="1.2819"
  />
  <path id="LTM-2"
    d="M44.8098,117.3616c1.4677-2.3236,4.4691-6.7501,7.0599-8.3049,1.0553-.6332,3.77-1.0049,4.1321.7203.2963,1.4155-.8481,3.0226-1.338,4.2793-.6758,1.7369-3.3673,6.3086-3.8669,7.2225-.8636,1.5781-2.2287,3.0265-3.3673,4.4245-1.0514,1.2954-3.9346.8113-4.4303-.79-.1801-.579.759-5.8903,1.8105-7.5517Z"
    fill="#f0eaa3" fill-rule="evenodd" stroke="#000" stroke-linecap="round" stroke-linejoin="round" stroke-width="1.2819"
  />
  <path id="Ti-acc.-flexor"
    d="M16.1152,136.7849c-.4318-.4279-2.0738-.9314-2.4553-.8714-.6545.1065-1.3341.5577-1.7505,1.0688-1.2102,1.4987-1.6846,3.3266-2.9936,4.7963-2.0332,2.281-5.2223,4.471-5.9019,7.6311-.1898.881-.1898,1.8143.546,2.4533.5015.4337,4.897.9062,6.2737.0988,3.6558-2.1416,7.9486-8.6264,7.1005-13.1322-.1084-.5731-.3931-1.6246-.8191-2.0448Z"
    fill="#22944d" fill-rule="evenodd" stroke="#000" stroke-linecap="round" stroke-linejoin="round" stroke-width="1.2819"
  />
  <path id="Tr-reductor"
    d="M55.3434,96.8054c.0039-.0155-.9236-1.5277-1.0185-1.7543-.7203-1.7195-1.4019-3.5764-1.6575-5.4411-.3272-2.3895.5054-5.201,1.2121-7.4529.426-1.3574.1317-2.5153,1.7427-3.4022,1.2083-.6661,4.2967-.1394,5.596.0658,1.2644.1975,3.2298.2614,4.3258,1.0747.2982.2207-.0562.9082-.1665,1.1269-.5209,1.036-.9198,2.1029-1.4174,3.1465-.5983,1.2548-1.6556,2.2655-2.4166,3.4234-1.3903,2.1222-2.4049,4.6182-3.772,6.8004-.1568.2498-1.8395,4.167-2.4281,2.4127Z"
    fill="#2cb54d" fill-rule="evenodd" stroke="#000" stroke-linecap="round" stroke-linejoin="round" stroke-width="1.2819"
  />
  <path id="LTM-1"
    d="M2.1097,152.3995c-1.2296-.1433-1.398,4.0953-1.4561,5.4818-.213,5.1061,2.2965,9.8734,4.5059,14.2475.5402,1.0689,1.4135,1.855,1.977,2.8406.1259.2246.5519,1.065.8772.9836.3389-.0852.3253-1.1754.3253-1.4038,0-1.429-.6216-2.8522-.8113-4.2619-.6312-4.7149-1.6343-9.5713-2.6024-14.2746-.3273-1.5897-1.2664-3.4292-2.8154-3.6132Z"
    fill="#f0eaa3" fill-rule="evenodd" stroke="#000" stroke-linecap="round" stroke-linejoin="round" stroke-width="1.2819"
  />
  <path id="Ta-extensor"
    d="M5.8391,160.5069c-.0891-.5538-.3505-3.0788,0-3.0013.7377.1627,1.8163,2.5386,2.0835,3.102,1.2102,2.5424,2.0506,4.502,3.1001,7.1141,1.4658,3.6539,2.9452,7.3155,4.3509,10.9887.4608,1.2044,4.1573,9.7107,5.4101,12.8089.7416,1.8337,1.4716,3.925,2.037,5.809.1297.4376.2827,1.6439-.2536,1.9073-.9972.486-2.4243-.2575-3.1408-.8849-1.8782-1.6362-3.0032-5.1197-3.9869-7.3407-2.4611-5.565-4.713-11.2733-6.9669-16.9235-.7164-1.7969-2.2229-10.9809-2.6334-13.5795Z"
    fill="#397ee2" fill-rule="evenodd" stroke="#000" stroke-linecap="round" stroke-linejoin="round" stroke-width="1.2819"
  />
  <path id="Ta-flexor"
    d="M8.5597,175.3335c-.9701-.8655-1.7853.3098-1.8628.8249-.0891.5906-.1142,1.2141-.0871,1.8124.0775,1.6672.3176,3.9888.8462,5.5534.3621,1.0786,3.1233,8.4134,3.5203,9.4125,1.1637,2.9316,2.8406,6.4558,4.5639,9.4242.7203,1.2431,3.77,5.1526,4.105,5.0596.5364-.1472.4396-1.5703.4531-1.9266.0678-1.9906-.1336-4.2483-.7378-6.1731-2.13-6.7752-5.05-13.595-8.1733-20.01-.5809-1.1947-1.6323-3.0884-2.6276-3.9772Z"
    fill="#fcc87e" fill-rule="evenodd" stroke="#000" stroke-linecap="round" stroke-linejoin="round" stroke-width="1.2819"
  />
  <path id="Ti-Ta"
    d="M22.054,199.9404c-.304.2265-1.2702,1.6536-1.4097,2.3739-.3815,1.9576-.5983,3.6422-.4938,5.627.0484.9082-.2634,1.9034.972,1.9847,3.4796.2324,3.3518-5.0306,3.0672-7.2206-.2072-1.6014.122-4.44-2.1358-2.7651Z"
    fill="#ffffff00" fill-rule="evenodd" stroke="#000" stroke-linecap="round" stroke-linejoin="round" stroke-width="1.2819"
  />
  <path id="Ta-1"
    d="M22.1256,212.9022c.0252-.5635.4957-2.9103.6797-3.1465.5809-.7455.7261-.9779,1.7233-1.1018.7203-.0891,2.1454,2.0505,2.4417,2.6179,1.6749,3.2143,2.0041,6.8081,2.7089,10.309.4299,2.1435,1.309,4.2657,1.8492,6.3976.2924,1.1483,2.4204,4.6685.7068,5.4489-2.6412,1.2005-4.6956-.6545-5.7567-2.9219-1.8666-3.9927-2.8658-8.1326-3.5667-12.4855-.2711-1.6904-.852-3.5919-.7861-5.1177Z"
    fill="#ffffff00" fill-rule="evenodd" stroke="#000" stroke-linecap="round" stroke-linejoin="round" stroke-width="1.2819"
  />
  <path id="Ta-2"
    d="M30.0995,233.9289c-.2788.1975-.7649.7997-.6797,1.3651.1549,1.0205,3.7487,6.9282,4.198,7.5982,1.4038,2.0913,3.3576,5.7219,6.175,5.1971.4492-.0852.9856-.06,1.3457-.4163,1.1386-1.125-.4705-3.0323-1.0592-3.9501-.6797-1.063-4.3451-8.6767-6.388-10.7176-.1142-.1143-.3873-.3834-.5712-.3312-.4977.1433-2.4049.8191-3.0207,1.2548Z"
    fill="#ffffff00" fill-rule="evenodd" stroke="#000" stroke-linecap="round" stroke-linejoin="round" stroke-width="1.2819"
  />
  <path id="Ta-3"
    d="M39.8663,248.4514c-.1084.3776.06.9856.1801,1.1811.424.6913,3.2821,3.6539,3.6325,4.0837,1.2412,1.5219,4.0334,4.1883,5.8342,1.3322.6893-1.0901-1.8802-3.5687-2.5792-4.0915-1.886-1.4038-3.4951-4.6124-6.235-3.5938-.5054.1878-.7242.7106-.8326,1.0882Z"
    fill="#ffffff00" fill-rule="evenodd" stroke="#000" stroke-linecap="round" stroke-linejoin="round" stroke-width="1.2819"
  />
  <path id="Ta-4"
    d="M48.696,256.1096c.0697.6351,1.1541,1.3806,1.6246,1.764,1.1579.9391,3.5977,3.0188,5.3036,2.2326.4183-.1936,1.9518-1.0379,2.0699-1.3922.2207-.6661-.3834-1.7427-.9198-2.1164-1.1502-.8036-5.3404-2.8812-6.8198-2.6722-.2246.0329-1.3283,1.5491-1.2586,2.1842Z"
    fill="#ffffff00" fill-rule="evenodd" stroke="#000" stroke-linecap="round" stroke-linejoin="round" stroke-width="1.2819"
  />
  <path id="Ta-5"
    d="M58.2228,258.2453c.3505-.2033,2.5889.1452,3.1601.2963,1.2935.3447,2.4165,1.9731,3.3712,2.7902.5286.4551,2.4495.7145,3.1601.8326,1.5394.2537,2.1164-1.2083,1.2702-2.4611-.2207-.3272-1.0843-1.0437-.5712-1.2606,1.1366-.4783,2.4824,2.5075,2.2694,3.4506-.335,1.4716-1.6556.9043-2.5753,1.5045-.0929.06.0465.8152-.1007,1.0205-.761,1.0592-2.3333,1.1521-3.5125.9178-.9101-.182-1.7388-.8597-2.4959-1.3593-1.3729-.9062-3.77-1.7001-5.0035-2.9587-.2905-.2963-.79-.8907-.546-1.3748.2227-.4396,1.1773-1.1676,1.5742-1.398Z"
    fill="#ffffff00" fill-rule="evenodd" stroke="#000" stroke-linecap="round" stroke-linejoin="round" stroke-width="1.2819"
  />
</svg>