<?xml version="1.0" encoding="UTF-8"?>
<svg id="Layer_1" data-name="Layer 1" xmlns="http://www.w3.org/2000/svg" viewBox="0 0 10.0481 4.215">
  <path id="leg_lh" d="M3.6204,1.1601c.0061-.051.016-.1611.0138-.1721-.0034-.0168-.0486-.0417-.0781-.0591-.3579-.2106-.3844-.2409-.7336-.4198-.083-.0425-.5034-.2385-.5864-.2776-.0809-.034-.1809-.0717-.2482-.1371l-.0051-.0063c-.0332-.0417-.0133-.0868.0448-.0813.1349.0338.2688.109.3933.1674.2106.1039.4339.1855.6468.2908.2259.1168.4444.2325.6635.3625.0604.0431.11.076.1245.1412.019.0856-.0128.2861-.0146.4041" fill="#aeadad"/>
  <path id="leg_lm" d="M7.5312.2226c-.0205-.0819-.1863-.0317-.2415-.0114-.1109.0612-.2372.144-.3447.2039-.0674.0431-.1492.1191-.2103.1665-.0587.0493-.1403.0871-.1953.1328-.1133.0928-.2286.2032-.3334.3076-.0618.0567-.1241.0987-.1737.1629-.0824.1013-.1562.199-.2465.3031-.0343.0372-.0716.0794-.0876.1257-.0366.0884.0909.2002.164.1212.163-.2457.307-.523.5466-.7059.0817-.0655.1439-.1493.2128-.2239.0967-.0792.1891-.1542.2928-.2244.1229-.0681.2376-.1445.3686-.2041.0799-.0397.2288-.0455.2483-.1474v-.0066Z" fill="#aeadad"/>
  <path id="leg_lf" d="M6.4541,2.3718c.02-.1874.1008-.3731.1707-.5455.0398-.0928.0738-.1746.1389-.237.0828-.0644.2196-.1128.3081-.0454.1785.181.3948.3555.4999.5992.0461.1986.1651.3638.2127.5588.0223.0795.1111.065.1869.0661.1543-.0027.3031-.0006.4539.029.1759.0273.3591.0572.5175.143.2678.1228.4046.3986.6256.581.0724.0607.1475.1247.2395.1633.0683.0314.147.0468.2069.0934.0776.071.0058.1195-.0736.0961-.156-.0388-.2862-.1481-.3959-.2542-.1154-.1002-.2207-.1942-.3443-.2913-.2405-.1655-.5131-.3073-.8129-.3291-.1613-.0244-.3472-.0535-.5123-.051-.1698.0071-.2003-.0138-.2866-.157-.1172-.2085-.2249-.4268-.3805-.6099-.0447-.0511-.0832-.1119-.1281-.1632-.0135-.0143-.0252-.0214-.0369-.0184-.0509.0275-.0738.1067-.1024.1509-.0889.1406-.1362.3268-.2267.4669-.1265.1316-.2363-.1375-.2598-.2383l-.0007-.0074Z" fill="#aeadad"/>
  <path id="abdomen" d="M4.1487,3.1228c-.5393-.1744-1.0522-.3845-1.513-.7071-.1221-.0915-.2715-.1752-.3956-.2624-.08-.0857-.1796-.1956-.2395-.2881-.0819-.1887-.248-.4655-.1353-.6596.1763-.2374.4138-.4431.7112-.5093.1609-.0291.3728-.0233.5363-.0096.0867.0223.1829.0674.269.0893.0674.0199.176.0336.2392.0625.095.0524.2056.1458.2956.1915.0836.0322.1904.0122.258.0795.0692.0535.1277.1175.2025.151.1172.051.2654.1077.3829.1652.1166.0434.168.1019.2445.1931.0651.0731.1418.1824.2033.2607.0224.0303.0322.0475.0351.0751-.0018.1307.016.3006-.014.4238-.0376.1629-.0686.3166-.1502.4586-.0361.0832-.0619.109-.126.1647-.0417.0358-.0839.0795-.1275.1094-.0886.0393-.2341.0378-.332.0557-.1016.0049-.2386-.0282-.3384-.0425l-.0062-.0015Z" fill="#c2c1c1"/>
  <path id="thorax" d="M6.5677,3.9439c-.1142.089-.2521.1896-.3889.2322-.0771.016-.1584.0325-.2351.0373-.1444.0102-.2843-.0286-.4193-.0517-.117-.0337-.2099-.0928-.3244-.1518-.1066-.0484-.2002-.1633-.3009-.2195-.0406-.0219-.0926-.0292-.1391-.0387-.1147-.0179-.1687-.0618-.2627-.109-.1436-.072-.3354-.1608-.0901-.2741.2534-.1283.2972-.5713.3936-.8212.0569-.1542.0894-.3155.1151-.4801.0062-.0511.0227-.1332.0174-.1855-.0107-.0679-.0833-.1184-.0999-.1786-.0225-.0673-.0541-.1766-.0742-.2447-.0332-.1753.2945-.0867.4005-.0676.0714.0136.1801.013.2518.0311.0658.0208.1573.067.2125.0899.059.0301.1482.0603.2037.1066.0506.0508.1206.1435.1672.1991.0415.0523.0894.1083.1295.1622.0416.0544.055.1218.1046.1675.1044.0849.2291.1715.3268.2717.0913.0932.1728.2082.2392.3194.0401.065.0872.1322.1217.2107.0347.0805.0414.1698.053.2599.0037.0366.0013.0606-.008.0992-.025.0864-.0321.1853-.0949.2525-.098.1219-.1757.2718-.293.3776l-.0063.0057Z" fill="#c2c1c1"/>
  <path id="head" d="M7.483,3.9603c-.1404.1308-.3839.182-.5689.1419-.1413-.0541-.2588-.1761-.3153-.3176-.0311-.1145-.0547-.2514-.0155-.3656.0701-.1538.2232-.2441.326-.3743.024-.0336.0293-.0677.0477-.1057.0332-.0587.0726-.1108.1034-.1704.0332-.0577.1107-.0543.172-.0684.0755-.0085.0669-.0739.0532-.1313-.0108-.0507.0011-.1072.0285-.1466.1067-.1306.3812-.1705.4787-.0077.0556.0888.0111.2136.0524.307.0367.0708.125.1047.1529.1824.0405.0978.0873.2167.0202.3151-.0643.082-.0474.1853-.0655.2805-.0089.0591-.0538.1144-.1067.1692-.0969.118-.2414.1997-.3556.2859l-.0074.0057Z" fill="#c2c1c1"/>
  <path id="eye_r" d="M7.7488,3.4209c-.0045.0215-.0225.1033-.0728.201-.0213.0413-.0511.0982-.1078.1602-.0201.022-.0711.0747-.1515.1223-.0184.0109-.0823.0476-.1748.0728-.0659.018-.127.0347-.2068.0233-.0637-.0091-.1104-.0319-.134-.0437-.0679-.0339-.1099-.075-.1194-.0845-.0854-.0853-.1091-.1812-.1136-.201-.0129-.0561-.0095-.099-.0087-.1078.002-.0229.007-.074.0379-.1253.0168-.0278.0247-.0283.099-.099.0265-.0252.0617-.0588.102-.102.0287-.0308.0272-.0312.0816-.0918.0271-.0301.0446-.0491.0787-.0859.0735-.0795.0843-.0893.0961-.099.031-.0256.0584-.0478.1007-.0623.0359-.0123.0648-.013.0974-.0134.0265-.0004.0959.0009.1806.032.0507.0186.0874.0321.1253.067.0575.0529.0772.1178.0874.1515.0133.0438.0156.0787.0175.1107.0009.0149.0044.0837-.0146.1748Z" fill="#9e9d9e"/>
  <path id="antenna_r" d="M8.2086,3.5562c.0369.1557-.0932.2827-.2175.3587-.0416.0263-.08.0589-.1221.0844-.0715.023-.1696.0469-.2448.0289-.1142-.0506-.0856-.1675-.0358-.2576.0224-.0486.0739-.0832.1164-.1133.1035-.0656.2154-.1179.337-.1363.0605-.015.1214-.0204.1632.0291l.0037.0061Z" fill="#c2c1c1"/>
  <path id="wings" d="M4.9051,3.4569c-.0974-.0037-.7593-.1697-.9006-.1973-.354-.1147-.8135-.2533-1.1837-.3798-.686-.2556-1.3912-.5166-2.0297-.8323-.1949-.0963-.3906-.1805-.5811-.2893-.0531-.0302-.1203-.0658-.1688-.0956-.0274-.0172-.0387-.0385-.0399-.0745-.0121-.1245.0611-.1454.1738-.1338.0427.0052.078.0077.1054-.0132.0881-.1112.1991-.0595.329-.0314.0988.0253.2154.0485.3059.0759.1164.0463.5748.2333.7986.3237.1695.0646.3713.1783.5896.2836.1961.0973.5835.3763.8529.5295.0798.0363.3374.1578.4262.1951.2346.0764.5115.1694.7008.2248.1419.0456.3659.097.4449.136.0536.059.14.2127.1763.2763l.0004.0024Z" fill="#d2d2d1"/>
  <path id="leg_rh" d="M.8317.0894c-.0419-.0329-.033-.0814.0248-.0894.139.0017.2867.0439.4214.072.2289.0524.465.0801.6965.1334.2468.0614.4861.1235.7293.1994.0687.0279.1245.0486.1537.1086.0383.0788.0537.2813.0792.3965.0447.2689.0182.5476.1087.8048.035.0954.0528.2624.1845.2432.0809-.0181.1483-.0751.2201-.1099.2674-.1297.5288-.2493.7739-.4213.1313-.0926.2764-.1634.4102-.2507.2263-.1371.3433-.0986.4339.1507.0482.123.0721.3731-.1096.3837-.1265.0229-.1344-.1212-.1783-.2021-.0364-.0705-.1547.0015-.1951.0374-.0843.081-.1386.109-.234.178-.0838.058-.1532.1116-.2519.1562-.2014.1127-.4308.1625-.6457.2285-.3537.0914-.5025-.1089-.5782-.4232-.0422-.2102-.094-.4026-.1405-.6092-.0237-.1035-.0468-.2097-.062-.322-.0059-.051-.0217-.1604-.0264-.1706-.0072-.0156-.0569-.0294-.0896-.0394-.3969-.1221-.4297-.1455-.8107-.2388-.0906-.0222-.5449-.1157-.6347-.1346-.0866-.0143-.1925-.028-.2731-.076l-.0065-.005Z" fill="#d6d6d6"/>
  <path id="leg_rm" d="M5.6574,1.7082c.0267-.0986.0585-.2011.0731-.3018.0065-.0379.0055-.0757-.0112-.0994-.0727-.0918-.2011-.0029-.2611.0653-.2388.2527-.3358.5946-.5374.8708-.0103.0147-.0179.0244-.0195.0228.0607-.1861.1535-.3834.2305-.5677.0435-.0931.0796-.1959.1253-.2932.0202-.0429.0469-.079.0359-.1272-.0865-.2183-.2493-.413-.4039-.5865-.098-.1114-.1965-.2246-.3061-.3288-.0652-.058-.2376-.3137-.3237-.2246-.0131.0785.0949.1279.1395.1805.0932.0892.1605.187.2483.2834.127.1309.2673.2634.366.4169.0425.0662.1075.1222.1474.1863.05.0788-.0097.1594-.0492.2368-.0265.0474-.0501.0855-.0812.1374-.0841.1323-.1499.2622-.2121.369-.1125.1848-.2226.373-.291.5899-.0212.1151-.0681.4194.1342.3923.0893-.0348.1363-.1352.1793-.2166.0499-.1136.1126-.1824.1831-.2805.0938-.1999.2323-.3464.3393-.5433.0373-.0604.0996-.1632.1786-.106.0593.0387.0973-.0026.114-.0675l.0023-.0083Z" fill="#d6d6d6"/>
  <path id="leg_rf" d="M9.6134,1.6509c-.023-.1127-.3401.0147-.4164.0246-.1366.0306-.2711.0699-.4073.1042-.1918.0385-.3772.0387-.5687.0603-.2029.0091-.3174.1981-.4248.3377-.154.1696-.2984.364-.5071.4618-.0635.0059-.1095-.0806-.1556-.1187-.1485-.1418-.2737-.2904-.383-.465-.0848-.1384-.2032-.2475-.3202-.3665-.069-.0843-.2114-.1309-.2381.0152-.0222.1205.0124.2296.0355.3532.0351.1618.05.3684.154.5145.0496.0599.3199.2414.3192.0668-.0312-.102-.0909-.1962-.118-.3024-.0188-.0569-.0377-.1058-.0248-.1012.0766.0693.1838.2507.2598.3395.0989.0911.1967.2042.3308.2254.142-.0071.2809-.1074.3967-.1746.1692-.1384.3145-.3079.4923-.4355.0909-.0605.1311-.1869.249-.1989.2492-.0143.5078-.0674.7507-.1464.1115-.0356.1978-.0898.3116-.1036.0849-.0215.2247.01.2634-.0846l.001-.0059Z" fill="#d6d6d6"/>
</svg>